<?xml version="1.0" standalone="no"?>
<svg xmlns="http://www.w3.org/2000/svg" width="500" height="500"><defs><clipPath id="clip-path-dot-color"><path d="M 19 159v 14h 7a 7 7, 0, 0, 0, 0 -14" transform="rotate(180,26,166)"/><path d="M 19 201v 14h 7a 7 7, 0, 0, 0, 0 -14" transform="rotate(-90,26,208)"/><path d="M 19 215v 14h 7a 7 7, 0, 0, 0, 0 -14" transform="rotate(90,26,222)"/><path d="M 19 257v 14h 14v -7a 7 7, 0, 0, 0, -7 -7" transform="rotate(-90,26,264)"/><path d="M 19 271v 14h 7a 7 7, 0, 0, 0, 0 -14" transform="rotate(90,26,278)"/><path d="M 19 313v 14h 7a 7 7, 0, 0, 0, 0 -14" transform="rotate(180,26,320)"/><circle cx="26" cy="348" r="7" transform="rotate(0,26,348)"/><rect x="33" y="159" width="14" height="14" transform="rotate(0,40,166)"/><circle cx="40" cy="194" r="7" transform="rotate(0,40,194)"/><path d="M 33 243v 14h 7a 7 7, 0, 0, 0, 0 -14" transform="rotate(-90,40,250)"/><path d="M 33 257v 14h 14v -7a 7 7, 0, 0, 0, -7 -7" transform="rotate(90,40,264)"/><path d="M 33 285v 14h 7a 7 7, 0, 0, 0, 0 -14" transform="rotate(180,40,292)"/><path d="M 33 313v 14h 14v -7a 7 7, 0, 0, 0, -7 -7" transform="rotate(0,40,320)"/><path d="M 33 327v 14h 14v -7a 7 7, 0, 0, 0, -7 -7" transform="rotate(180,40,334)"/><circle cx="54" cy="138" r="7" transform="rotate(0,54,138)"/><path d="M 47 159v 14h 14v -7a 7 7, 0, 0, 0, -7 -7" transform="rotate(0,54,166)"/><path d="M 47 173v 14h 7a 7 7, 0, 0, 0, 0 -14" transform="rotate(90,54,180)"/><path d="M 47 201v 14h 7a 7 7, 0, 0, 0, 0 -14" transform="rotate(180,54,208)"/><rect x="47" y="285" width="14" height="14" transform="rotate(0,54,292)"/><path d="M 47 299v 14h 14v -7a 7 7, 0, 0, 0, -7 -7" transform="rotate(180,54,306)"/><path d="M 47 327v 14h 14v -7a 7 7, 0, 0, 0, -7 -7" transform="rotate(0,54,334)"/><rect x="47" y="341" width="14" height="14" transform="rotate(0,54,348)"/><path d="M 47 355v 14h 14v -7a 7 7, 0, 0, 0, -7 -7" transform="rotate(180,54,362)"/><path d="M 61 187v 14h 14v -7a 7 7, 0, 0, 0, -7 -7" transform="rotate(-90,68,194)"/><rect x="61" y="201" width="14" height="14" transform="rotate(0,68,208)"/><path d="M 61 257v 14h 14v -7a 7 7, 0, 0, 0, -7 -7" transform="rotate(-90,68,264)"/><rect x="61" y="271" width="14" height="14" transform="rotate(0,68,278)"/><rect x="61" y="285" width="14" height="14" transform="rotate(0,68,292)"/><rect x="61" y="299" width="14" height="14" transform="rotate(0,68,306)"/><path d="M 61 313v 14h 14v -7a 7 7, 0, 0, 0, -7 -7" transform="rotate(180,68,320)"/><path d="M 61 341v 14h 14v -7a 7 7, 0, 0, 0, -7 -7" transform="rotate(0,68,348)"/><rect x="61" y="355" width="14" height="14" transform="rotate(0,68,362)"/><path d="M 75 131v 14h 14v -7a 7 7, 0, 0, 0, -7 -7" transform="rotate(-90,82,138)"/><rect x="75" y="145" width="14" height="14" transform="rotate(0,82,152)"/><path d="M 75 159v 14h 7a 7 7, 0, 0, 0, 0 -14" transform="rotate(90,82,166)"/><path d="M 75 187v 14h 14v -7a 7 7, 0, 0, 0, -7 -7" transform="rotate(0,82,194)"/><rect x="75" y="201" width="14" height="14" transform="rotate(0,82,208)"/><path d="M 75 229v 14h 7a 7 7, 0, 0, 0, 0 -14" transform="rotate(-90,82,236)"/><rect x="75" y="243" width="14" height="14" transform="rotate(0,82,250)"/><rect x="75" y="257" width="14" height="14" transform="rotate(0,82,264)"/><rect x="75" y="271" width="14" height="14" transform="rotate(0,82,278)"/><rect x="75" y="285" width="14" height="14" transform="rotate(0,82,292)"/><rect x="75" y="299" width="14" height="14" transform="rotate(0,82,306)"/><path d="M 75 313v 14h 14v -7a 7 7, 0, 0, 0, -7 -7" transform="rotate(90,82,320)"/><path d="M 75 355v 14h 7a 7 7, 0, 0, 0, 0 -14" transform="rotate(0,82,362)"/><rect x="89" y="131" width="14" height="14" transform="rotate(0,96,138)"/><circle cx="96" cy="180" r="7" transform="rotate(0,96,180)"/><path d="M 89 201v 14h 14v -7a 7 7, 0, 0, 0, -7 -7" transform="rotate(0,96,208)"/><path d="M 89 215v 14h 14v -7a 7 7, 0, 0, 0, -7 -7" transform="rotate(180,96,222)"/><path d="M 89 257v 14h 7a 7 7, 0, 0, 0, 0 -14" transform="rotate(0,96,264)"/><path d="M 89 285v 14h 7a 7 7, 0, 0, 0, 0 -14" transform="rotate(0,96,292)"/><path d="M 89 327v 14h 7a 7 7, 0, 0, 0, 0 -14" transform="rotate(180,96,334)"/><path d="M 103 131v 14h 7a 7 7, 0, 0, 0, 0 -14" transform="rotate(0,110,138)"/><circle cx="110" cy="166" r="7" transform="rotate(0,110,166)"/><path d="M 103 187v 14h 7a 7 7, 0, 0, 0, 0 -14" transform="rotate(180,110,194)"/><rect x="103" y="215" width="14" height="14" transform="rotate(0,110,222)"/><path d="M 103 243v 14h 7a 7 7, 0, 0, 0, 0 -14" transform="rotate(180,110,250)"/><circle cx="110" cy="278" r="7" transform="rotate(0,110,278)"/><circle cx="110" cy="306" r="7" transform="rotate(0,110,306)"/><rect x="103" y="327" width="14" height="14" transform="rotate(0,110,334)"/><circle cx="110" cy="362" r="7" transform="rotate(0,110,362)"/><path d="M 117 173v 14h 7a 7 7, 0, 0, 0, 0 -14" transform="rotate(-90,124,180)"/><path d="M 117 187v 14h 14v -7a 7 7, 0, 0, 0, -7 -7" transform="rotate(90,124,194)"/><path d="M 117 215v 14h 14v -7a 7 7, 0, 0, 0, -7 -7" transform="rotate(0,124,222)"/><rect x="117" y="229" width="14" height="14" transform="rotate(0,124,236)"/><rect x="117" y="243" width="14" height="14" transform="rotate(0,124,250)"/><path d="M 117 257v 14h 14v -7a 7 7, 0, 0, 0, -7 -7" transform="rotate(180,124,264)"/><path d="M 117 313v 14h 14v -7a 7 7, 0, 0, 0, -7 -7" transform="rotate(-90,124,320)"/><rect x="117" y="327" width="14" height="14" transform="rotate(0,124,334)"/><path d="M 117 341v 14h 7a 7 7, 0, 0, 0, 0 -14" transform="rotate(90,124,348)"/><path d="M 131 33v 14h 7a 7 7, 0, 0, 0, 0 -14" transform="rotate(180,138,40)"/><path d="M 131 75v 14h 7a 7 7, 0, 0, 0, 0 -14" transform="rotate(180,138,82)"/><circle cx="138" cy="110" r="7" transform="rotate(0,138,110)"/><path d="M 131 131v 14h 7a 7 7, 0, 0, 0, 0 -14" transform="rotate(-90,138,138)"/><path d="M 131 145v 14h 7a 7 7, 0, 0, 0, 0 -14" transform="rotate(90,138,152)"/><path d="M 131 229v 14h 14v -7a 7 7, 0, 0, 0, -7 -7" transform="rotate(0,138,236)"/><rect x="131" y="243" width="14" height="14" transform="rotate(0,138,250)"/><rect x="131" y="257" width="14" height="14" transform="rotate(0,138,264)"/><rect x="131" y="271" width="14" height="14" transform="rotate(0,138,278)"/><rect x="131" y="285" width="14" height="14" transform="rotate(0,138,292)"/><rect x="131" y="299" width="14" height="14" transform="rotate(0,138,306)"/><path d="M 131 313v 14h 14v -7a 7 7, 0, 0, 0, -7 -7" transform="rotate(90,138,320)"/><path d="M 131 355v 14h 7a 7 7, 0, 0, 0, 0 -14" transform="rotate(-90,138,362)"/><path d="M 131 369v 14h 14v -7a 7 7, 0, 0, 0, -7 -7" transform="rotate(180,138,376)"/><path d="M 131 397v 14h 7a 7 7, 0, 0, 0, 0 -14" transform="rotate(-90,138,404)"/><path d="M 131 411v 14h 7a 7 7, 0, 0, 0, 0 -14" transform="rotate(90,138,418)"/><path d="M 131 439v 14h 7a 7 7, 0, 0, 0, 0 -14" transform="rotate(180,138,446)"/><path d="M 145 33v 14h 7a 7 7, 0, 0, 0, 0 -14" transform="rotate(0,152,40)"/><path d="M 145 61v 14h 7a 7 7, 0, 0, 0, 0 -14" transform="rotate(-90,152,68)"/><rect x="145" y="75" width="14" height="14" transform="rotate(0,152,82)"/><path d="M 145 89v 14h 14v -7a 7 7, 0, 0, 0, -7 -7" transform="rotate(180,152,96)"/><circle cx="152" cy="124" r="7" transform="rotate(0,152,124)"/><circle cx="152" cy="180" r="7" transform="rotate(0,152,180)"/><path d="M 145 271v 14h 7a 7 7, 0, 0, 0, 0 -14" transform="rotate(0,152,278)"/><path d="M 145 341v 14h 7a 7 7, 0, 0, 0, 0 -14" transform="rotate(180,152,348)"/><path d="M 145 369v 14h 7a 7 7, 0, 0, 0, 0 -14" transform="rotate(0,152,376)"/><path d="M 145 425v 14h 14v -7a 7 7, 0, 0, 0, -7 -7" transform="rotate(-90,152,432)"/><path d="M 145 439v 14h 14v -7a 7 7, 0, 0, 0, -7 -7" transform="rotate(90,152,446)"/><path d="M 159 75v 14h 14v -7a 7 7, 0, 0, 0, -7 -7" transform="rotate(0,166,82)"/><rect x="159" y="89" width="14" height="14" transform="rotate(0,166,96)"/><path d="M 159 103v 14h 7a 7 7, 0, 0, 0, 0 -14" transform="rotate(90,166,110)"/><path d="M 159 187v 14h 7a 7 7, 0, 0, 0, 0 -14" transform="rotate(180,166,194)"/><path d="M 159 215v 14h 14v -7a 7 7, 0, 0, 0, -7 -7" transform="rotate(-90,166,222)"/><path d="M 159 229v 14h 7a 7 7, 0, 0, 0, 0 -14" transform="rotate(90,166,236)"/><path d="M 159 257v 14h 7a 7 7, 0, 0, 0, 0 -14" transform="rotate(180,166,264)"/><path d="M 159 299v 14h 7a 7 7, 0, 0, 0, 0 -14" transform="rotate(-90,166,306)"/><rect x="159" y="313" width="14" height="14" transform="rotate(0,166,320)"/><rect x="159" y="327" width="14" height="14" transform="rotate(0,166,334)"/><rect x="159" y="341" width="14" height="14" transform="rotate(0,166,348)"/><path d="M 159 425v 14h 7a 7 7, 0, 0, 0, 0 -14" transform="rotate(0,166,432)"/><path d="M 159 453v 14h 7a 7 7, 0, 0, 0, 0 -14" transform="rotate(180,166,460)"/><path d="M 173 19v 14h 14v -7a 7 7, 0, 0, 0, -7 -7" transform="rotate(-90,180,26)"/><path d="M 173 33v 14h 7a 7 7, 0, 0, 0, 0 -14" transform="rotate(90,180,40)"/><path d="M 173 61v 14h 7a 7 7, 0, 0, 0, 0 -14" transform="rotate(180,180,68)"/><path d="M 173 89v 14h 7a 7 7, 0, 0, 0, 0 -14" transform="rotate(0,180,96)"/><path d="M 173 159v 14h 7a 7 7, 0, 0, 0, 0 -14" transform="rotate(180,180,166)"/><path d="M 173 187v 14h 14v -7a 7 7, 0, 0, 0, -7 -7" transform="rotate(0,180,194)"/><rect x="173" y="201" width="14" height="14" transform="rotate(0,180,208)"/><path d="M 173 215v 14h 14v -7a 7 7, 0, 0, 0, -7 -7" transform="rotate(90,180,222)"/><path d="M 173 243v 14h 14v -7a 7 7, 0, 0, 0, -7 -7" transform="rotate(-90,180,250)"/><rect x="173" y="257" width="14" height="14" transform="rotate(0,180,264)"/><path d="M 173 271v 14h 14v -7a 7 7, 0, 0, 0, -7 -7" transform="rotate(180,180,278)"/><path d="M 173 313v 14h 7a 7 7, 0, 0, 0, 0 -14" transform="rotate(0,180,320)"/><path d="M 173 341v 14h 7a 7 7, 0, 0, 0, 0 -14" transform="rotate(0,180,348)"/><circle cx="180" cy="376" r="7" transform="rotate(0,180,376)"/><path d="M 173 453v 14h 7a 7 7, 0, 0, 0, 0 -14" transform="rotate(0,180,460)"/><rect x="187" y="19" width="14" height="14" transform="rotate(0,194,26)"/><path d="M 187 61v 14h 7a 7 7, 0, 0, 0, 0 -14" transform="rotate(0,194,68)"/><path d="M 187 103v 14h 7a 7 7, 0, 0, 0, 0 -14" transform="rotate(-90,194,110)"/><rect x="187" y="117" width="14" height="14" transform="rotate(0,194,124)"/><rect x="187" y="131" width="14" height="14" transform="rotate(0,194,138)"/><rect x="187" y="145" width="14" height="14" transform="rotate(0,194,152)"/><rect x="187" y="159" width="14" height="14" transform="rotate(0,194,166)"/><path d="M 187 229v 14h 14v -7a 7 7, 0, 0, 0, -7 -7" transform="rotate(-90,194,236)"/><rect x="187" y="243" width="14" height="14" transform="rotate(0,194,250)"/><path d="M 187 271v 14h 7a 7 7, 0, 0, 0, 0 -14" transform="rotate(0,194,278)"/><circle cx="194" cy="306" r="7" transform="rotate(0,194,306)"/><circle cx="194" cy="362" r="7" transform="rotate(0,194,362)"/><circle cx="194" cy="390" r="7" transform="rotate(0,194,390)"/><path d="M 187 411v 14h 7a 7 7, 0, 0, 0, 0 -14" transform="rotate(-90,194,418)"/><path d="M 187 425v 14h 7a 7 7, 0, 0, 0, 0 -14" transform="rotate(90,194,432)"/><circle cx="194" cy="474" r="7" transform="rotate(0,194,474)"/><path d="M 201 19v 14h 14v -7a 7 7, 0, 0, 0, -7 -7" transform="rotate(0,208,26)"/><path d="M 201 33v 14h 7a 7 7, 0, 0, 0, 0 -14" transform="rotate(90,208,40)"/><path d="M 201 159v 14h 14v -7a 7 7, 0, 0, 0, -7 -7" transform="rotate(0,208,166)"/><path d="M 201 173v 14h 7a 7 7, 0, 0, 0, 0 -14" transform="rotate(90,208,180)"/><path d="M 201 201v 14h 14v -7a 7 7, 0, 0, 0, -7 -7" transform="rotate(-90,208,208)"/><rect x="201" y="215" width="14" height="14" transform="rotate(0,208,222)"/><rect x="201" y="229" width="14" height="14" transform="rotate(0,208,236)"/><rect x="201" y="243" width="14" height="14" transform="rotate(0,208,250)"/><path d="M 201 285v 14h 7a 7 7, 0, 0, 0, 0 -14" transform="rotate(180,208,292)"/><path d="M 201 313v 14h 14v -7a 7 7, 0, 0, 0, -7 -7" transform="rotate(-90,208,320)"/><path d="M 201 327v 14h 7a 7 7, 0, 0, 0, 0 -14" transform="rotate(90,208,334)"/><path d="M 201 397v 14h 7a 7 7, 0, 0, 0, 0 -14" transform="rotate(180,208,404)"/><path d="M 201 439v 14h 7a 7 7, 0, 0, 0, 0 -14" transform="rotate(180,208,446)"/><path d="M 215 47v 14h 7a 7 7, 0, 0, 0, 0 -14" transform="rotate(-90,222,54)"/><rect x="215" y="61" width="14" height="14" transform="rotate(0,222,68)"/><rect x="215" y="75" width="14" height="14" transform="rotate(0,222,82)"/><rect x="215" y="89" width="14" height="14" transform="rotate(0,222,96)"/><rect x="215" y="103" width="14" height="14" transform="rotate(0,222,110)"/><path d="M 215 117v 14h 7a 7 7, 0, 0, 0, 0 -14" transform="rotate(90,222,124)"/><path d="M 215 187v 14h 7a 7 7, 0, 0, 0, 0 -14" transform="rotate(-90,222,194)"/><rect x="215" y="201" width="14" height="14" transform="rotate(0,222,208)"/><rect x="215" y="215" width="14" height="14" transform="rotate(0,222,222)"/><path d="M 215 243v 14h 14v -7a 7 7, 0, 0, 0, -7 -7" transform="rotate(0,222,250)"/><rect x="215" y="257" width="14" height="14" transform="rotate(0,222,264)"/><rect x="215" y="271" width="14" height="14" transform="rotate(0,222,278)"/><rect x="215" y="285" width="14" height="14" transform="rotate(0,222,292)"/><rect x="215" y="313" width="14" height="14" transform="rotate(0,222,320)"/><path d="M 215 369v 14h 14v -7a 7 7, 0, 0, 0, -7 -7" transform="rotate(-90,222,376)"/><rect x="215" y="383" width="14" height="14" transform="rotate(0,222,390)"/><path d="M 215 397v 14h 14v -7a 7 7, 0, 0, 0, -7 -7" transform="rotate(90,222,404)"/><path d="M 215 425v 14h 7a 7 7, 0, 0, 0, 0 -14" transform="rotate(-90,222,432)"/><rect x="215" y="439" width="14" height="14" transform="rotate(0,222,446)"/><path d="M 215 453v 14h 7a 7 7, 0, 0, 0, 0 -14" transform="rotate(90,222,460)"/><path d="M 229 33v 14h 7a 7 7, 0, 0, 0, 0 -14" transform="rotate(180,236,40)"/><path d="M 229 61v 14h 14v -7a 7 7, 0, 0, 0, -7 -7" transform="rotate(0,236,68)"/><rect x="229" y="75" width="14" height="14" transform="rotate(0,236,82)"/><path d="M 229 145v 14h 14v -7a 7 7, 0, 0, 0, -7 -7" transform="rotate(-90,236,152)"/><rect x="229" y="159" width="14" height="14" transform="rotate(0,236,166)"/><path d="M 229 173v 14h 7a 7 7, 0, 0, 0, 0 -14" transform="rotate(90,236,180)"/><rect x="229" y="215" width="14" height="14" transform="rotate(0,236,222)"/><rect x="229" y="257" width="14" height="14" transform="rotate(0,236,264)"/><path d="M 229 285v 14h 14v -7a 7 7, 0, 0, 0, -7 -7" transform="rotate(0,236,292)"/><rect x="229" y="299" width="14" height="14" transform="rotate(0,236,306)"/><rect x="229" y="313" width="14" height="14" transform="rotate(0,236,320)"/><path d="M 229 355v 14h 7a 7 7, 0, 0, 0, 0 -14" transform="rotate(-90,236,362)"/><rect x="229" y="369" width="14" height="14" transform="rotate(0,236,376)"/><rect x="229" y="383" width="14" height="14" transform="rotate(0,236,390)"/><path d="M 243 19v 14h 14v -7a 7 7, 0, 0, 0, -7 -7" transform="rotate(-90,250,26)"/><path d="M 243 33v 14h 14v -7a 7 7, 0, 0, 0, -7 -7" transform="rotate(90,250,40)"/><rect x="243" y="75" width="14" height="14" transform="rotate(0,250,82)"/><rect x="243" y="89" width="14" height="14" transform="rotate(0,250,96)"/><rect x="243" y="103" width="14" height="14" transform="rotate(0,250,110)"/><path d="M 243 117v 14h 7a 7 7, 0, 0, 0, 0 -14" transform="rotate(90,250,124)"/><rect x="243" y="145" width="14" height="14" transform="rotate(0,250,152)"/><rect x="243" y="159" width="14" height="14" transform="rotate(0,250,166)"/><rect x="243" y="215" width="14" height="14" transform="rotate(0,250,222)"/><path d="M 243 229v 14h 14v -7a 7 7, 0, 0, 0, -7 -7" transform="rotate(180,250,236)"/><rect x="243" y="257" width="14" height="14" transform="rotate(0,250,264)"/><path d="M 243 299v 14h 14v -7a 7 7, 0, 0, 0, -7 -7" transform="rotate(0,250,306)"/><rect x="243" y="313" width="14" height="14" transform="rotate(0,250,320)"/><rect x="243" y="327" width="14" height="14" transform="rotate(0,250,334)"/><path d="M 243 341v 14h 14v -7a 7 7, 0, 0, 0, -7 -7" transform="rotate(180,250,348)"/><path d="M 243 383v 14h 7a 7 7, 0, 0, 0, 0 -14" transform="rotate(0,250,390)"/><circle cx="250" cy="418" r="7" transform="rotate(0,250,418)"/><path d="M 243 453v 14h 7a 7 7, 0, 0, 0, 0 -14" transform="rotate(180,250,460)"/><path d="M 257 19v 14h 7a 7 7, 0, 0, 0, 0 -14" transform="rotate(0,264,26)"/><rect x="257" y="75" width="14" height="14" transform="rotate(0,264,82)"/><path d="M 257 89v 14h 14v -7a 7 7, 0, 0, 0, -7 -7" transform="rotate(90,264,96)"/><path d="M 257 131v 14h 7a 7 7, 0, 0, 0, 0 -14" transform="rotate(-90,264,138)"/><rect x="257" y="145" width="14" height="14" transform="rotate(0,264,152)"/><path d="M 257 159v 14h 14v -7a 7 7, 0, 0, 0, -7 -7" transform="rotate(90,264,166)"/><circle cx="264" cy="194" r="7" transform="rotate(0,264,194)"/><path d="M 257 215v 14h 14v -7a 7 7, 0, 0, 0, -7 -7" transform="rotate(0,264,222)"/><rect x="257" y="229" width="14" height="14" transform="rotate(0,264,236)"/><rect x="257" y="243" width="14" height="14" transform="rotate(0,264,250)"/><rect x="257" y="257" width="14" height="14" transform="rotate(0,264,264)"/><path d="M 257 271v 14h 7a 7 7, 0, 0, 0, 0 -14" transform="rotate(90,264,278)"/><path d="M 257 313v 14h 7a 7 7, 0, 0, 0, 0 -14" transform="rotate(0,264,320)"/><rect x="257" y="341" width="14" height="14" transform="rotate(0,264,348)"/><circle cx="264" cy="376" r="7" transform="rotate(0,264,376)"/><path d="M 257 425v 14h 14v -7a 7 7, 0, 0, 0, -7 -7" transform="rotate(-90,264,432)"/><rect x="257" y="439" width="14" height="14" transform="rotate(0,264,446)"/><rect x="257" y="453" width="14" height="14" transform="rotate(0,264,460)"/><path d="M 271 61v 14h 7a 7 7, 0, 0, 0, 0 -14" transform="rotate(-90,278,68)"/><rect x="271" y="75" width="14" height="14" transform="rotate(0,278,82)"/><circle cx="278" cy="110" r="7" transform="rotate(0,278,110)"/><path d="M 271 145v 14h 7a 7 7, 0, 0, 0, 0 -14" transform="rotate(0,278,152)"/><path d="M 271 229v 14h 7a 7 7, 0, 0, 0, 0 -14" transform="rotate(0,278,236)"/><circle cx="278" cy="306" r="7" transform="rotate(0,278,306)"/><path d="M 271 341v 14h 14v -7a 7 7, 0, 0, 0, -7 -7" transform="rotate(0,278,348)"/><path d="M 271 355v 14h 7a 7 7, 0, 0, 0, 0 -14" transform="rotate(90,278,362)"/><path d="M 271 397v 14h 7a 7 7, 0, 0, 0, 0 -14" transform="rotate(180,278,404)"/><path d="M 271 425v 14h 7a 7 7, 0, 0, 0, 0 -14" transform="rotate(0,278,432)"/><path d="M 271 453v 14h 7a 7 7, 0, 0, 0, 0 -14" transform="rotate(0,278,460)"/><circle cx="292" cy="54" r="7" transform="rotate(0,292,54)"/><rect x="285" y="75" width="14" height="14" transform="rotate(0,292,82)"/><path d="M 285 89v 14h 7a 7 7, 0, 0, 0, 0 -14" transform="rotate(90,292,96)"/><path d="M 285 117v 14h 7a 7 7, 0, 0, 0, 0 -14" transform="rotate(-90,292,124)"/><path d="M 285 131v 14h 7a 7 7, 0, 0, 0, 0 -14" transform="rotate(90,292,138)"/><circle cx="292" cy="180" r="7" transform="rotate(0,292,180)"/><path d="M 285 215v 14h 7a 7 7, 0, 0, 0, 0 -14" transform="rotate(180,292,222)"/><path d="M 285 285v 14h 7a 7 7, 0, 0, 0, 0 -14" transform="rotate(180,292,292)"/><path d="M 285 327v 14h 7a 7 7, 0, 0, 0, 0 -14" transform="rotate(180,292,334)"/><path d="M 285 397v 14h 7a 7 7, 0, 0, 0, 0 -14" transform="rotate(0,292,404)"/><path d="M 285 467v 14h 7a 7 7, 0, 0, 0, 0 -14" transform="rotate(180,292,474)"/><path d="M 299 19v 14h 7a 7 7, 0, 0, 0, 0 -14" transform="rotate(180,306,26)"/><path d="M 299 61v 14h 7a 7 7, 0, 0, 0, 0 -14" transform="rotate(-90,306,68)"/><rect x="299" y="75" width="14" height="14" transform="rotate(0,306,82)"/><circle cx="306" cy="110" r="7" transform="rotate(0,306,110)"/><circle cx="306" cy="152" r="7" transform="rotate(0,306,152)"/><path d="M 299 201v 14h 7a 7 7, 0, 0, 0, 0 -14" transform="rotate(-90,306,208)"/><rect x="299" y="215" width="14" height="14" transform="rotate(0,306,222)"/><rect x="299" y="229" width="14" height="14" transform="rotate(0,306,236)"/><path d="M 299 243v 14h 14v -7a 7 7, 0, 0, 0, -7 -7" transform="rotate(180,306,250)"/><path d="M 299 271v 14h 7a 7 7, 0, 0, 0, 0 -14" transform="rotate(-90,306,278)"/><rect x="299" y="285" width="14" height="14" transform="rotate(0,306,292)"/><path d="M 299 327v 14h 7a 7 7, 0, 0, 0, 0 -14" transform="rotate(0,306,334)"/><path d="M 299 355v 14h 7a 7 7, 0, 0, 0, 0 -14" transform="rotate(180,306,362)"/><circle cx="306" cy="390" r="7" transform="rotate(0,306,390)"/><path d="M 299 411v 14h 7a 7 7, 0, 0, 0, 0 -14" transform="rotate(-90,306,418)"/><path d="M 299 425v 14h 7a 7 7, 0, 0, 0, 0 -14" transform="rotate(90,306,432)"/><path d="M 299 467v 14h 7a 7 7, 0, 0, 0, 0 -14" transform="rotate(0,306,474)"/><path d="M 313 19v 14h 14v -7a 7 7, 0, 0, 0, -7 -7" transform="rotate(0,320,26)"/><rect x="313" y="33" width="14" height="14" transform="rotate(0,320,40)"/><path d="M 313 47v 14h 7a 7 7, 0, 0, 0, 0 -14" transform="rotate(90,320,54)"/><rect x="313" y="75" width="14" height="14" transform="rotate(0,320,82)"/><path d="M 313 131v 14h 7a 7 7, 0, 0, 0, 0 -14" transform="rotate(180,320,138)"/><circle cx="320" cy="166" r="7" transform="rotate(0,320,166)"/><circle cx="320" cy="194" r="7" transform="rotate(0,320,194)"/><path d="M 313 215v 14h 7a 7 7, 0, 0, 0, 0 -14" transform="rotate(0,320,222)"/><rect x="313" y="243" width="14" height="14" transform="rotate(0,320,250)"/><path d="M 313 285v 14h 14v -7a 7 7, 0, 0, 0, -7 -7" transform="rotate(0,320,292)"/><rect x="313" y="299" width="14" height="14" transform="rotate(0,320,306)"/><path d="M 313 313v 14h 14v -7a 7 7, 0, 0, 0, -7 -7" transform="rotate(180,320,320)"/><rect x="313" y="355" width="14" height="14" transform="rotate(0,320,362)"/><path d="M 313 439v 14h 14v -7a 7 7, 0, 0, 0, -7 -7" transform="rotate(-90,320,446)"/><path d="M 313 453v 14h 14v -7a 7 7, 0, 0, 0, -7 -7" transform="rotate(180,320,460)"/><path d="M 327 61v 14h 14v -7a 7 7, 0, 0, 0, -7 -7" transform="rotate(-90,334,68)"/><rect x="327" y="75" width="14" height="14" transform="rotate(0,334,82)"/><circle cx="334" cy="110" r="7" transform="rotate(0,334,110)"/><path d="M 327 131v 14h 14v -7a 7 7, 0, 0, 0, -7 -7" transform="rotate(0,334,138)"/><path d="M 327 145v 14h 7a 7 7, 0, 0, 0, 0 -14" transform="rotate(90,334,152)"/><path d="M 327 201v 14h 7a 7 7, 0, 0, 0, 0 -14" transform="rotate(180,334,208)"/><path d="M 327 229v 14h 14v -7a 7 7, 0, 0, 0, -7 -7" transform="rotate(-90,334,236)"/><rect x="327" y="243" width="14" height="14" transform="rotate(0,334,250)"/><path d="M 327 257v 14h 7a 7 7, 0, 0, 0, 0 -14" transform="rotate(90,334,264)"/><path d="M 327 299v 14h 14v -7a 7 7, 0, 0, 0, -7 -7" transform="rotate(0,334,306)"/><rect x="327" y="313" width="14" height="14" transform="rotate(0,334,320)"/><path d="M 327 341v 14h 7a 7 7, 0, 0, 0, 0 -14" transform="rotate(-90,334,348)"/><rect x="327" y="355" width="14" height="14" transform="rotate(0,334,362)"/><path d="M 327 369v 14h 14v -7a 7 7, 0, 0, 0, -7 -7" transform="rotate(180,334,376)"/><path d="M 327 397v 14h 7a 7 7, 0, 0, 0, 0 -14" transform="rotate(-90,334,404)"/><path d="M 327 411v 14h 7a 7 7, 0, 0, 0, 0 -14" transform="rotate(90,334,418)"/><path d="M 327 439v 14h 14v -7a 7 7, 0, 0, 0, -7 -7" transform="rotate(0,334,446)"/><path d="M 327 453v 14h 14v -7a 7 7, 0, 0, 0, -7 -7" transform="rotate(90,334,460)"/><path d="M 341 61v 14h 14v -7a 7 7, 0, 0, 0, -7 -7" transform="rotate(0,348,68)"/><path d="M 341 75v 14h 14v -7a 7 7, 0, 0, 0, -7 -7" transform="rotate(90,348,82)"/><path d="M 341 117v 14h 7a 7 7, 0, 0, 0, 0 -14" transform="rotate(180,348,124)"/><circle cx="348" cy="166" r="7" transform="rotate(0,348,166)"/><path d="M 341 187v 14h 7a 7 7, 0, 0, 0, 0 -14" transform="rotate(-90,348,194)"/><rect x="341" y="201" width="14" height="14" transform="rotate(0,348,208)"/><rect x="341" y="215" width="14" height="14" transform="rotate(0,348,222)"/><rect x="341" y="229" width="14" height="14" transform="rotate(0,348,236)"/><path d="M 341 271v 14h 7a 7 7, 0, 0, 0, 0 -14" transform="rotate(180,348,278)"/><rect x="341" y="313" width="14" height="14" transform="rotate(0,348,320)"/><rect x="341" y="355" width="14" height="14" transform="rotate(0,348,362)"/><rect x="341" y="369" width="14" height="14" transform="rotate(0,348,376)"/><path d="M 341 383v 14h 14v -7a 7 7, 0, 0, 0, -7 -7" transform="rotate(180,348,390)"/><path d="M 341 467v 14h 7a 7 7, 0, 0, 0, 0 -14" transform="rotate(180,348,474)"/><path d="M 355 19v 14h 7a 7 7, 0, 0, 0, 0 -14" transform="rotate(-90,362,26)"/><rect x="355" y="33" width="14" height="14" transform="rotate(0,362,40)"/><path d="M 355 47v 14h 7a 7 7, 0, 0, 0, 0 -14" transform="rotate(90,362,54)"/><path d="M 355 89v 14h 7a 7 7, 0, 0, 0, 0 -14" transform="rotate(-90,362,96)"/><rect x="355" y="103" width="14" height="14" transform="rotate(0,362,110)"/><rect x="355" y="117" width="14" height="14" transform="rotate(0,362,124)"/><path d="M 355 131v 14h 14v -7a 7 7, 0, 0, 0, -7 -7" transform="rotate(180,362,138)"/><rect x="355" y="229" width="14" height="14" transform="rotate(0,362,236)"/><path d="M 355 257v 14h 7a 7 7, 0, 0, 0, 0 -14" transform="rotate(-90,362,264)"/><rect x="355" y="271" width="14" height="14" transform="rotate(0,362,278)"/><path d="M 355 285v 14h 7a 7 7, 0, 0, 0, 0 -14" transform="rotate(90,362,292)"/><path d="M 355 313v 14h 14v -7a 7 7, 0, 0, 0, -7 -7" transform="rotate(0,362,320)"/><rect x="355" y="327" width="14" height="14" transform="rotate(0,362,334)"/><rect x="355" y="341" width="14" height="14" transform="rotate(0,362,348)"/><rect x="355" y="355" width="14" height="14" transform="rotate(0,362,362)"/><rect x="355" y="369" width="14" height="14" transform="rotate(0,362,376)"/><rect x="355" y="383" width="14" height="14" transform="rotate(0,362,390)"/><rect x="355" y="397" width="14" height="14" transform="rotate(0,362,404)"/><path d="M 355 411v 14h 14v -7a 7 7, 0, 0, 0, -7 -7" transform="rotate(180,362,418)"/><path d="M 355 453v 14h 7a 7 7, 0, 0, 0, 0 -14" transform="rotate(-90,362,460)"/><path d="M 355 467v 14h 14v -7a 7 7, 0, 0, 0, -7 -7" transform="rotate(90,362,474)"/><path d="M 369 131v 14h 14v -7a 7 7, 0, 0, 0, -7 -7" transform="rotate(0,376,138)"/><path d="M 369 145v 14h 7a 7 7, 0, 0, 0, 0 -14" transform="rotate(90,376,152)"/><path d="M 369 187v 14h 14v -7a 7 7, 0, 0, 0, -7 -7" transform="rotate(-90,376,194)"/><path d="M 369 201v 14h 7a 7 7, 0, 0, 0, 0 -14" transform="rotate(90,376,208)"/><rect x="369" y="229" width="14" height="14" transform="rotate(0,376,236)"/><path d="M 369 243v 14h 7a 7 7, 0, 0, 0, 0 -14" transform="rotate(90,376,250)"/><path d="M 369 341v 14h 14v -7a 7 7, 0, 0, 0, -7 -7" transform="rotate(0,376,348)"/><rect x="369" y="355" width="14" height="14" transform="rotate(0,376,362)"/><rect x="369" y="411" width="14" height="14" transform="rotate(0,376,418)"/><circle cx="376" cy="446" r="7" transform="rotate(0,376,446)"/><path d="M 383 173v 14h 7a 7 7, 0, 0, 0, 0 -14" transform="rotate(-90,390,180)"/><path d="M 383 187v 14h 14v -7a 7 7, 0, 0, 0, -7 -7" transform="rotate(90,390,194)"/><path d="M 383 229v 14h 7a 7 7, 0, 0, 0, 0 -14" transform="rotate(0,390,236)"/><path d="M 383 257v 14h 7a 7 7, 0, 0, 0, 0 -14" transform="rotate(180,390,264)"/><path d="M 383 299v 14h 7a 7 7, 0, 0, 0, 0 -14" transform="rotate(-90,390,306)"/><rect x="383" y="313" width="14" height="14" transform="rotate(0,390,320)"/><path d="M 383 327v 14h 7a 7 7, 0, 0, 0, 0 -14" transform="rotate(90,390,334)"/><rect x="383" y="355" width="14" height="14" transform="rotate(0,390,362)"/><circle cx="390" cy="390" r="7" transform="rotate(0,390,390)"/><rect x="383" y="411" width="14" height="14" transform="rotate(0,390,418)"/><path d="M 383 425v 14h 7a 7 7, 0, 0, 0, 0 -14" transform="rotate(90,390,432)"/><circle cx="390" cy="460" r="7" transform="rotate(0,390,460)"/><path d="M 397 145v 14h 7a 7 7, 0, 0, 0, 0 -14" transform="rotate(-90,404,152)"/><path d="M 397 159v 14h 7a 7 7, 0, 0, 0, 0 -14" transform="rotate(90,404,166)"/><path d="M 397 257v 14h 7a 7 7, 0, 0, 0, 0 -14" transform="rotate(0,404,264)"/><path d="M 397 285v 14h 7a 7 7, 0, 0, 0, 0 -14" transform="rotate(180,404,292)"/><path d="M 397 313v 14h 7a 7 7, 0, 0, 0, 0 -14" transform="rotate(0,404,320)"/><rect x="397" y="355" width="14" height="14" transform="rotate(0,404,362)"/><rect x="397" y="411" width="14" height="14" transform="rotate(0,404,418)"/><circle cx="404" cy="474" r="7" transform="rotate(0,404,474)"/><circle cx="418" cy="138" r="7" transform="rotate(0,418,138)"/><path d="M 411 173v 14h 14v -7a 7 7, 0, 0, 0, -7 -7" transform="rotate(-90,418,180)"/><path d="M 411 187v 14h 14v -7a 7 7, 0, 0, 0, -7 -7" transform="rotate(180,418,194)"/><path d="M 411 229v 14h 7a 7 7, 0, 0, 0, 0 -14" transform="rotate(180,418,236)"/><rect x="411" y="285" width="14" height="14" transform="rotate(0,418,292)"/><path d="M 411 299v 14h 7a 7 7, 0, 0, 0, 0 -14" transform="rotate(90,418,306)"/><path d="M 411 355v 14h 14v -7a 7 7, 0, 0, 0, -7 -7" transform="rotate(0,418,362)"/><rect x="411" y="369" width="14" height="14" transform="rotate(0,418,376)"/><rect x="411" y="383" width="14" height="14" transform="rotate(0,418,390)"/><rect x="411" y="397" width="14" height="14" transform="rotate(0,418,404)"/><rect x="411" y="411" width="14" height="14" transform="rotate(0,418,418)"/><path d="M 411 425v 14h 14v -7a 7 7, 0, 0, 0, -7 -7" transform="rotate(180,418,432)"/><path d="M 425 173v 14h 14v -7a 7 7, 0, 0, 0, -7 -7" transform="rotate(0,432,180)"/><rect x="425" y="187" width="14" height="14" transform="rotate(0,432,194)"/><path d="M 425 201v 14h 7a 7 7, 0, 0, 0, 0 -14" transform="rotate(90,432,208)"/><path d="M 425 229v 14h 14v -7a 7 7, 0, 0, 0, -7 -7" transform="rotate(0,432,236)"/><path d="M 425 243v 14h 7a 7 7, 0, 0, 0, 0 -14" transform="rotate(90,432,250)"/><rect x="425" y="285" width="14" height="14" transform="rotate(0,432,292)"/><path d="M 425 313v 14h 14v -7a 7 7, 0, 0, 0, -7 -7" transform="rotate(-90,432,320)"/><rect x="425" y="327" width="14" height="14" transform="rotate(0,432,334)"/><path d="M 425 341v 14h 7a 7 7, 0, 0, 0, 0 -14" transform="rotate(90,432,348)"/><rect x="425" y="383" width="14" height="14" transform="rotate(0,432,390)"/><rect x="425" y="397" width="14" height="14" transform="rotate(0,432,404)"/><rect x="425" y="411" width="14" height="14" transform="rotate(0,432,418)"/><rect x="425" y="425" width="14" height="14" transform="rotate(0,432,432)"/><rect x="425" y="439" width="14" height="14" transform="rotate(0,432,446)"/><path d="M 425 453v 14h 7a 7 7, 0, 0, 0, 0 -14" transform="rotate(90,432,460)"/><circle cx="446" cy="166" r="7" transform="rotate(0,446,166)"/><path d="M 439 187v 14h 7a 7 7, 0, 0, 0, 0 -14" transform="rotate(0,446,194)"/><path d="M 439 215v 14h 7a 7 7, 0, 0, 0, 0 -14" transform="rotate(180,446,222)"/><path d="M 439 257v 14h 14v -7a 7 7, 0, 0, 0, -7 -7" transform="rotate(-90,446,264)"/><rect x="439" y="271" width="14" height="14" transform="rotate(0,446,278)"/><rect x="439" y="285" width="14" height="14" transform="rotate(0,446,292)"/><rect x="439" y="313" width="14" height="14" transform="rotate(0,446,320)"/><path d="M 439 327v 14h 14v -7a 7 7, 0, 0, 0, -7 -7" transform="rotate(90,446,334)"/><path d="M 439 355v 14h 7a 7 7, 0, 0, 0, 0 -14" transform="rotate(180,446,362)"/><path d="M 439 383v 14h 14v -7a 7 7, 0, 0, 0, -7 -7" transform="rotate(0,446,390)"/><rect x="439" y="397" width="14" height="14" transform="rotate(0,446,404)"/><path d="M 439 411v 14h 14v -7a 7 7, 0, 0, 0, -7 -7" transform="rotate(90,446,418)"/><path d="M 453 131v 14h 7a 7 7, 0, 0, 0, 0 -14" transform="rotate(-90,460,138)"/><path d="M 453 145v 14h 14v -7a 7 7, 0, 0, 0, -7 -7" transform="rotate(180,460,152)"/><rect x="453" y="215" width="14" height="14" transform="rotate(0,460,222)"/><rect x="453" y="229" width="14" height="14" transform="rotate(0,460,236)"/><rect x="453" y="243" width="14" height="14" transform="rotate(0,460,250)"/><rect x="453" y="257" width="14" height="14" transform="rotate(0,460,264)"/><rect x="453" y="271" width="14" height="14" transform="rotate(0,460,278)"/><rect x="453" y="285" width="14" height="14" transform="rotate(0,460,292)"/><rect x="453" y="299" width="14" height="14" transform="rotate(0,460,306)"/><rect x="453" y="313" width="14" height="14" transform="rotate(0,460,320)"/><path d="M 453 341v 14h 7a 7 7, 0, 0, 0, 0 -14" transform="rotate(-90,460,348)"/><rect x="453" y="355" width="14" height="14" transform="rotate(0,460,362)"/><path d="M 467 145v 14h 7a 7 7, 0, 0, 0, 0 -14" transform="rotate(0,474,152)"/><path d="M 467 173v 14h 7a 7 7, 0, 0, 0, 0 -14" transform="rotate(-90,474,180)"/><path d="M 467 187v 14h 7a 7 7, 0, 0, 0, 0 -14" transform="rotate(90,474,194)"/><path d="M 467 215v 14h 14v -7a 7 7, 0, 0, 0, -7 -7" transform="rotate(0,474,222)"/><path d="M 467 229v 14h 14v -7a 7 7, 0, 0, 0, -7 -7" transform="rotate(90,474,236)"/><path d="M 467 271v 14h 7a 7 7, 0, 0, 0, 0 -14" transform="rotate(0,474,278)"/><path d="M 467 313v 14h 14v -7a 7 7, 0, 0, 0, -7 -7" transform="rotate(0,474,320)"/><path d="M 467 327v 14h 7a 7 7, 0, 0, 0, 0 -14" transform="rotate(90,474,334)"/><path d="M 467 355v 14h 14v -7a 7 7, 0, 0, 0, -7 -7" transform="rotate(0,474,362)"/><rect x="467" y="369" width="14" height="14" transform="rotate(0,474,376)"/><path d="M 467 383v 14h 7a 7 7, 0, 0, 0, 0 -14" transform="rotate(90,474,390)"/><circle cx="474" cy="474" r="7" transform="rotate(0,474,474)"/></clipPath><clipPath id="clip-path-corners-square-color-0-0"><path clip-rule="evenodd" d="M 19 54v 28a 35 35, 0, 0, 0, 35 35h 28a 35 35, 0, 0, 0, 35 -35v -28a 35 35, 0, 0, 0, -35 -35h -28a 35 35, 0, 0, 0, -35 35M 54 33h 28a 21 21, 0, 0, 1, 21 21v 28a 21 21, 0, 0, 1, -21 21h -28a 21 21, 0, 0, 1, -21 -21v -28a 21 21, 0, 0, 1, 21 -21" transform="rotate(0,68,68)"/></clipPath><clipPath id="clip-path-corners-dot-color-0-0"><circle cx="68" cy="68" r="21" transform="rotate(0,68,68)"/></clipPath><clipPath id="clip-path-corners-square-color-1-0"><path clip-rule="evenodd" d="M 383 54v 28a 35 35, 0, 0, 0, 35 35h 28a 35 35, 0, 0, 0, 35 -35v -28a 35 35, 0, 0, 0, -35 -35h -28a 35 35, 0, 0, 0, -35 35M 418 33h 28a 21 21, 0, 0, 1, 21 21v 28a 21 21, 0, 0, 1, -21 21h -28a 21 21, 0, 0, 1, -21 -21v -28a 21 21, 0, 0, 1, 21 -21" transform="rotate(90,432,68)"/></clipPath><clipPath id="clip-path-corners-dot-color-1-0"><circle cx="432" cy="68" r="21" transform="rotate(90,432,68)"/></clipPath><clipPath id="clip-path-corners-square-color-0-1"><path clip-rule="evenodd" d="M 19 418v 28a 35 35, 0, 0, 0, 35 35h 28a 35 35, 0, 0, 0, 35 -35v -28a 35 35, 0, 0, 0, -35 -35h -28a 35 35, 0, 0, 0, -35 35M 54 397h 28a 21 21, 0, 0, 1, 21 21v 28a 21 21, 0, 0, 1, -21 21h -28a 21 21, 0, 0, 1, -21 -21v -28a 21 21, 0, 0, 1, 21 -21" transform="rotate(-90,68,432)"/></clipPath><clipPath id="clip-path-corners-dot-color-0-1"><circle cx="68" cy="432" r="21" transform="rotate(-90,68,432)"/></clipPath></defs><rect x="0" y="0" height="500" width="500" clip-path="url('#clip-path-background-color')" fill="#fff"/><rect x="0" y="0" height="500" width="500" clip-path="url('#clip-path-dot-color')" fill="#18417E"/><rect x="19" y="19" height="98" width="98" clip-path="url('#clip-path-corners-square-color-0-0')" fill="#18417E"/><rect x="47" y="47" height="42" width="42" clip-path="url('#clip-path-corners-dot-color-0-0')" fill="#18417E"/><rect x="383" y="19" height="98" width="98" clip-path="url('#clip-path-corners-square-color-1-0')" fill="#18417E"/><rect x="411" y="47" height="42" width="42" clip-path="url('#clip-path-corners-dot-color-1-0')" fill="#18417E"/><rect x="19" y="383" height="98" width="98" clip-path="url('#clip-path-corners-square-color-0-1')" fill="#18417E"/><rect x="47" y="411" height="42" width="42" clip-path="url('#clip-path-corners-dot-color-0-1')" fill="#18417E"/></svg>